#!OML:ASF E:\emotionWalksFemale\Project 1\Capture day 1\Session 1\Female1.ASF
:FULLY-SPECIFIED
:DEGREES
1157
root 8.8823 15.4782 -15.4019 174.62 -4.32534 -179.336
lowerback 6.32239 1.51478 1.04918
upperback -4.59767 2.00662 -0.461284
thorax -8.33929 0.862666 -1.33817
lowerneck -5.53242 -3.22002 -6.2443
upperneck 12.4103 -4.82002 5.98991
head 4.91923 -2.43837 2.57838
rclavicle 2.28602e-015 6.55989e-015
rhumerus -41.7437 -0.820434 -81.1275
rradius 35.5056
rwrist 18.0007
rhand -2.98441 -53.3735
rfingers 7.12502
rthumb 22.7289 -442.055
lclavicle 2.28602e-015 6.55989e-015
lhumerus -42.9451 4.89818 74.1806
lradius 42.3063
lwrist -10.7648
lhand -10.3151 -33.0261
lfingers 7.12502
lthumb 15.6802 -3.64143
rfemur -14.5128 -5.1779 21.3215
rtibia 60.561
rfoot 5.20575 0.50499
rtoes -13.1558
lfemur -3.94057 -11.8858 -29.817
ltibia 25.7927
lfoot -17.808 13.1903
ltoes -7.62527
1158
root 8.8862 15.479 -15.4345 174.626 -4.45612 -179.249
lowerback 6.29003 1.47458 1.06188
upperback -4.57902 1.9562 -0.437296
thorax -8.30198 0.839025 -1.31198
lowerneck -5.68883 -3.27621 -6.19059
upperneck 12.4874 -4.88143 5.89263
head 4.97004 -2.46768 2.53248
rclavicle 1.14301e-015 -7.95139e-016
rhumerus -41.7519 -0.953027 -81.0902
rradius 35.4063
rwrist 18.2364
rhand -3.02163 -53.3946
rfingers 7.12502
rthumb 22.6932 -442.08
lclavicle 1.14301e-015 -7.95139e-016
lhumerus -42.8702 5.29707 74.0467
lradius 41.9134
lwrist -11.1373
lhand -10.5347 -33.5722
lfingers 7.12502
lthumb 15.4687 -4.17109
rfemur -14.3988 -5.20381 21.4537
rtibia 60.458
rfoot 5.67439 0.4435
rtoes -11.3333
lfemur -3.7923 -12.0316 -29.7538
ltibia 25.7741
lfoot -17.8765 13.2607
ltoes -7.82638
1159
root 8.88677 15.4789 -15.4692 174.631 -4.61384 -179.402
lowerback 6.17418 1.4334 0.860737
upperback -4.53696 1.87769 -0.471066
thorax -8.19598 0.812889 -1.22023
lowerneck -5.67575 -3.30546 -6.20207
upperneck 12.4628 -4.91608 5.87598
head 4.96242 -2.48581 2.52712
rclavicle 1.15792e-014 -3.57812e-015
rhumerus -41.8353 -1.03053 -81.0654
rradius 35.466
rwrist 18.3921
rhand -2.78544 -53.8174
rfingers 7.12502
rthumb 22.9199 -442.475
lclavicle 1.15792e-014 -3.57812e-015
lhumerus -42.7652 5.57038 74.0144
lradius 41.5069
lwrist -11.3197
lhand -10.3851 -33.5017
lfingers 7.12502
lthumb 15.6128 -4.11176
rfemur -14.2432 -5.35692 21.2601
rtibia 60.4046
rfoot 6.16088 0.53375
rtoes -11.0215
lfemur -3.62126 -12.1724 -29.9733
ltibia 25.8021
lfoot -18.0249 13.3046
ltoes -7.7436
1160
root 8.88712 15.4824 -15.5029 174.672 -4.66344 -179.434
lowerback 6.0781 1.43333 0.813433
upperback -4.59953 1.86595 -0.489906
thorax -8.20844 0.806815 -1.21009
lowerneck -5.47346 -3.3143 -6.14733
upperneck 12.4233 -4.94466 5.83915
head 4.91543 -2.50562 2.50805
rclavicle 1.55052e-014 1.78906e-015
rhumerus -42.099 -1.06237 -81.0617
rradius 35.4904
rwrist 18.3453
rhand -2.90841 -53.6645
rfingers 7.12502
rthumb 22.8019 -442.337
lclavicle 1.55052e-014 1.78906e-015
lhumerus -42.9652 5.5508 73.9986
lradius 41.374
lwrist -11.3607
lhand -9.82529 -32.7291
lfingers 7.12502
lthumb 16.1519 -3.38206
rfemur -14.1611 -5.41514 21.2234
rtibia 60.3739
rfoot 6.68524 0.567773
rtoes -10.3235
lfemur -3.50987 -12.2417 -30.0276
ltibia 25.7997
lfoot -18.0507 13.3581
ltoes -7.48067
1161
root 8.88856 15.4845 -15.5314 174.741 -4.65987 -179.281
lowerback 6.1444 1.43966 0.96716
upperback -4.72845 1.88515 -0.474953
thorax -8.38198 0.802414 -1.28711
lowerneck -5.33037 -3.29538 -5.966
upperneck 12.4123 -4.93364 5.71505
head 4.87973 -2.50392 2.44274
rclavicle -1.94312e-014 1.15295e-014
rhumerus -42.3171 -0.969465 -81.1403
rradius 35.3597
rwrist 18.0604
rhand -3.33312 -53.3014
rfingers 7.12502
rthumb 22.3942 -442.023
lclavicle -1.94312e-014 1.15295e-014
lhumerus -43.301 5.60972 73.8686
lradius 41.2616
lwrist -11.4704
lhand -9.69159 -32.6563
lfingers 7.12502
lthumb 16.2806 -3.31978
rfemur -14.1719 -5.42976 21.4236
rtibia 60.3569
rfoot 7.15788 0.465331
rtoes -8.50704
lfemur -3.47302 -12.2685 -29.8564
ltibia 25.7634
lfoot -17.9491 13.48
ltoes -8.3483
1162
root 8.89109 15.4823 -15.5565 174.736 -4.69777 -179.157
lowerback 6.30775 1.433 1.06935
upperback -4.79778 1.88818 -0.453988
thorax -8.55058 0.79528 -1.32886
lowerneck -5.19066 -3.23953 -6.03892
upperneck 12.3372 -4.87831 5.8754
head 4.83481 -2.47476 2.51066
rclavicle 3.93097e-014 1.21259e-014
rhumerus -42.3435 -0.921665 -81.1652
rradius 35.0878
rwrist 18.0991
rhand -3.49575 -53.4051
rfingers 7.12502
rthumb 22.2381 -442.146
lclavicle 3.93097e-014 1.21259e-014
lhumerus -43.4496 5.90633 73.6807
lradius 40.8769
lwrist -11.6761
lhand -9.98404 -33.3978
lfingers 7.12502
lthumb 15.999 -4.03843
rfemur -14.1206 -5.5193 21.5883
rtibia 60.3472
rfoot 7.54539 0.316911
rtoes -7.26935
lfemur -3.35767 -12.3045 -29.7359
ltibia 25.7325
lfoot -17.8428 13.5811
ltoes -9.62695
1163
root 8.89501 15.4827 -15.5851 174.709 -4.69057 -179.175
lowerback 6.31884 1.45661 1.01128
upperback -4.77148 1.91577 -0.453749
thorax -8.52963 0.813354 -1.29969
lowerneck -5.13433 -3.22975 -6.31111
upperneck 12.2227 -4.87379 6.18773
head 4.80337 -2.46721 2.65407
rclavicle 3.26007e-014 1.07344e-014
rhumerus -42.2618 -0.959145 -81.0984
rradius 34.8799
rwrist 18.3706
rhand -3.37244 -53.5349
rfingers 7.12502
rthumb 22.3565 -442.261
lclavicle 3.26007e-014 1.07344e-014
lhumerus -43.5609 6.06077 73.6454
lradius 40.6758
lwrist -11.7089
lhand -9.75072 -33.5611
lfingers 7.12502
lthumb 16.2237 -4.21995
rfemur -14.0361 -5.58862 21.5994
rtibia 60.3403
rfoot 7.98248 0.308984
rtoes -7.59113
lfemur -3.17476 -12.3628 -29.7736
ltibia 25.6868
lfoot -17.5883 13.7453
ltoes -10.748
1164
root 8.89618 15.4882 -15.6122 174.768 -4.6675 -179.262
lowerback 6.23839 1.48742 0.934716
upperback -4.69137 1.94984 -0.48177
thorax -8.39609 0.837143 -1.28701
lowerneck -5.49694 -3.31212 -6.37871
upperneck 12.283 -4.95151 6.20362
head 4.89078 -2.4957 2.65924
rclavicle -9.93923e-016 6.16232e-015
rhumerus -42.0597 -0.995056 -81.0643
rradius 34.7767
rwrist 18.2858
rhand -3.49913 -53.5005
rfingers 7.12502
rthumb 22.2349 -442.241
lclavicle -9.93923e-016 6.16232e-015
lhumerus -43.4911 6.19559 73.691
lradius 40.4724
lwrist -11.6521
lhand -9.09553 -33.0927
lfingers 7.12502
lthumb 16.8545 -3.8041
rfemur -14.0758 -5.66074 21.5091
rtibia 60.3336
rfoot 8.45411 0.45472
rtoes -8.55826
lfemur -3.06565 -12.461 -29.8871
ltibia 25.5987
lfoot -17.3322 13.9763
ltoes -11.9625
1165
root 8.8952 15.4963 -15.6348 174.894 -4.69754 -179.32
lowerback 6.13571 1.51191 0.908608
upperback -4.64395 1.97655 -0.532459
thorax -8.28285 0.852208 -1.32519
lowerneck -5.98946 -3.47098 -6.18084
upperneck 12.513 -5.12823 5.93453
head 5.0457 -2.57625 2.52218
rclavicle 2.22142e-014 9.14409e-015
rhumerus -41.9162 -1.06533 -81.0854
rradius 34.7431
rwrist 18.0549
rhand -3.61411 -53.6209
rfingers 7.12502
rthumb 22.1245 -442.375
lclavicle 2.22142e-014 9.14409e-015
lhumerus -43.2625 6.35158 73.6507
lradius 39.9639
lwrist -11.7433
lhand -8.62944 -32.7783
lfingers 7.12502
lthumb 17.3031 -3.5286
rfemur -14.2101 -5.74425 21.4437
rtibia 60.316
rfoot 8.86439 0.336353
rtoes -7.92393
lfemur -3.03213 -12.5789 -29.9648
ltibia 25.4782
lfoot -17.3973 14.0592
ltoes -12.0441
1166
root 8.89749 15.5035 -15.6583 174.981 -4.69597 -179.258
lowerback 6.07034 1.52388 0.890877
upperback -4.67014 1.99023 -0.505578
thorax -8.27402 0.85992 -1.28703
lowerneck -5.43672 -3.28058 -5.86865
upperneck 12.0231 -4.86173 5.66641
head 4.77093 -2.45301 2.41653
rclavicle 2.90226e-014 5.96354e-016
rhumerus -41.9052 -1.02492 -81.0994
rradius 34.7091
rwrist 18.0593
rhand -3.21021 -54.0783
rfingers 7.12502
rthumb 22.5122 -442.786
lclavicle 2.90226e-014 5.96354e-016
lhumerus -43.4058 6.43103 73.5879
lradius 39.6218
lwrist -11.7498
lhand -8.37349 -32.6333
lfingers 7.12502
lthumb 17.5494 -3.40542
rfemur -14.2667 -5.72191 21.5471
rtibia 60.2727
rfoot 9.22835 -0.161062
rtoes -5.43477
lfemur -2.9611 -12.6852 -29.8966
ltibia 25.3489
lfoot -17.5866 14.0571
ltoes -11.035
